<?xml version="1.0" encoding="UTF-8"?>
<!DOCTYPE svg PUBLIC "-//W3C//DTD SVG 1.1//EN" "http://www.w3.org/Graphics/SVG/1.1/DTD/svg11.dtd">
<svg xmlns="http://www.w3.org/2000/svg" xmlns:xlink="http://www.w3.org/1999/xlink" version="1.1" width="1000px"
height="560px" viewBox="-0.5 -0.5 1000 560">
<g>
<g transform="translate(-0.5 -0.5)scale(2)">
<text x="122" y="183" fill="var(--text-primary-color)" font-family="Roboto" font-size="12px" text-anchor="middle">End Control</text>
</g>
<g transform="translate(-0.5 -0.5)scale(2)">
<text x="326" y="206" fill="var(--text-primary-color)" font-family="Roboto" font-size="12px" text-anchor="middle">Control</text>
</g>
<g transform="translate(-0.5 -0.5)scale(2)">
<text x="391" y="110" fill="var(--text-primary-color)" font-family="Roboto" font-size="12px" text-anchor="middle">Handle</text>
</g>
<g transform="translate(-0.5 -0.5)scale(2)">
<text x="84" y="121" fill="var(--text-primary-color)" font-family="Roboto" font-size="12px" text-anchor="middle">Point/Waypoint</text>
</g>
<g transform="translate(-0.5 -0.5)scale(2)">
<text x="250" y="262" fill="var(--text-primary-color)" font-family="Roboto" font-size="12px" text-anchor="middle">Path</text>
</g>
<g transform="translate(-0.5 -0.5)scale(2)">
<text x="216" y="99" fill="var(--text-primary-color)" font-family="Roboto" font-size="12px" text-anchor="middle">Segment</text>
</g>
<g transform="translate(-0.5 -0.5)scale(2)">
<text x="153" y="33" fill="var(--text-primary-color)" font-family="Roboto" font-size="12px" text-anchor="middle">Heading Indicator</text>
</g>
<path d="M 734 212 L 664.05 235.88" fill="none" stroke="var(--text-primary-color)" stroke-width="2" stroke-miterlimit="10"
pointer-events="stroke" />
<path d="M 654.12 239.28 L 665.1 228.13 L 664.05 235.88 L 669.63 241.38 Z" fill="var(--text-primary-color)" stroke="var(--text-primary-color)"
stroke-width="2" stroke-miterlimit="10" pointer-events="all" />
<path d="M 310 356 L 368.29 331.02" fill="none" stroke="var(--text-primary-color)" stroke-width="2" stroke-miterlimit="10"
pointer-events="stroke" />
<path d="M 377.94 326.88 L 367.83 338.83 L 368.29 331.02 L 362.32 325.96 Z" fill="var(--text-primary-color)" stroke="var(--text-primary-color)"
stroke-width="2" stroke-miterlimit="10" pointer-events="all" />
<path d="M 260 234 L 311.74 219.45" fill="none" stroke="var(--text-primary-color)" stroke-width="2" stroke-miterlimit="10"
pointer-events="stroke" />
<path d="M 321.85 216.61 L 310.27 227.13 L 311.74 219.45 L 306.48 213.66 Z" fill="var(--text-primary-color)" stroke="var(--text-primary-color)"
stroke-width="2" stroke-miterlimit="10" pointer-events="all" />
<path
d="M 386.96 114.72 L 376.96 114.72 Q 366.96 114.72 366.96 134.72 L 366.96 189.72 Q 366.96 209.72 356.96 209.72 L 351.96 209.72 Q 346.96 209.72 356.96 209.72 L 361.96 209.72 Q 366.96 209.72 366.96 229.72 L 366.96 284.72 Q 366.96 304.72 376.96 304.72 L 386.96 304.72"
fill="none" stroke="var(--text-primary-color)" stroke-width="2" stroke-miterlimit="10"
transform="translate(366.96,0)scale(-1,1)translate(-366.96,0)rotate(42.2,366.96,209.72)"
pointer-events="all" />
<path
d="M 518.96 257 L 508.96 257 Q 498.96 257 498.96 277 L 498.96 457 Q 498.96 477 488.96 477 L 483.96 477 Q 478.96 477 488.96 477 L 493.96 477 Q 498.96 477 498.96 497 L 498.96 677 Q 498.96 697 508.96 697 L 518.96 697"
fill="none" stroke="var(--text-primary-color)" stroke-width="2" stroke-miterlimit="10"
transform="translate(498.96,0)scale(-1,1)translate(-498.96,0)rotate(-90,498.96,477)" pointer-events="all" />
<path d="M 302 78 L 275.84 128.68" fill="none" stroke="var(--text-primary-color)" stroke-width="2" stroke-miterlimit="10"
pointer-events="stroke" />
<path d="M 271.03 138.01 L 271.23 122.36 L 275.84 128.68 L 283.67 128.78 Z" fill="var(--text-primary-color)" stroke="var(--text-primary-color)"
stroke-width="2" stroke-miterlimit="10" pointer-events="all" />
<path d="M 602 406 L 546.71 409.25" fill="none" stroke="var(--text-primary-color)" stroke-width="2" stroke-miterlimit="10"
pointer-events="stroke" />
<path d="M 536.23 409.87 L 549.8 402.06 L 546.71 409.25 L 550.62 416.03 Z" fill="var(--text-primary-color)" stroke="var(--text-primary-color)"
stroke-width="2" stroke-miterlimit="10" pointer-events="all" />
<path d="M 678 388 L 694.87 349.66" fill="none" stroke="var(--text-primary-color)" stroke-width="2" stroke-miterlimit="10"
pointer-events="stroke" />
<path d="M 699.1 340.05 L 699.87 355.68 L 694.87 349.66 L 687.05 350.04 Z" fill="var(--text-primary-color)" stroke="var(--text-primary-color)"
stroke-width="2" stroke-miterlimit="10" pointer-events="all" />
</g>
</svg>